<svg width="40" height="40" viewBox="0 0 40 40" fill="none" xmlns="http://www.w3.org/2000/svg">
  <g>
    <path d="M36.4 20.2c0-1.4-.1-2.4-.3-3.5H20v6.4h9.3c-.2 1.5-1.5 3.8-4.3 5.3l-.1.7 6.2 4.8.4.1c3.6-3.3 5.6-8.1 5.6-13.8z" fill="#4285F4"/>
    <path d="M20 37c5.1 0 9.4-1.7 12.5-4.7l-6-4.7c-1.6 1.1-3.7 1.9-6.5 1.9-5 0-9.2-3.3-10.7-7.8l-.7.1-6.1 4.7-.1.6C6.2 33.8 12.6 37 20 37z" fill="#34A853"/>
    <path d="M9.3 22.7c-.4-1.1-.7-2.2-.7-3.7s.3-2.6.7-3.7l-.1-.6-6.2-4.8-.6.3C1.1 13.7 0 16.7 0 19.9c0 3.2 1.1 6.2 3.1 8.7l6.8-5.9z" fill="#FBBC05"/>
    <path d="M20 8.1c3.5 0 5.8 1.5 7.1 2.7l5.2-5.1C29.3 2.7 25.1 1 20 1 12.6 1 6.2 4.2 3.1 11.2l6.8 5.9C10.8 13.4 15 8.1 20 8.1z" fill="#EA4335"/>
  </g>
</svg> 